<?xml version="1.0" standalone="no"?>
<!DOCTYPE svg PUBLIC "-//W3C//DTD SVG 20010904//EN"
 "http://www.w3.org/TR/2001/REC-SVG-20010904/DTD/svg10.dtd">
<svg version="1.0" xmlns="http://www.w3.org/2000/svg"
 width="633.000000pt" height="633.000000pt" viewBox="0 0 633.000000 633.000000"
 preserveAspectRatio="xMidYMid meet">
<metadata>
Created by potrace 1.11, written by Peter Selinger 2001-2013
</metadata>
<g transform="translate(0.000000,633.000000) scale(0.100000,-0.100000)"
fill="#000000" stroke="none">
<path d="M2880 6134 c0 -5 -23 -10 -51 -12 -28 -1 -60 -7 -70 -13 -13 -7 -19
-6 -19 1 0 7 -7 7 -22 -1 -13 -7 -24 -12 -25 -11 -2 1 -4 2 -5 1 -2 -1 -14 -2
-28 -4 -31 -3 -56 -8 -145 -30 -38 -9 -81 -19 -94 -21 -13 -3 -32 -9 -43 -15
-10 -5 -18 -7 -18 -3 0 3 -7 1 -15 -6 -9 -7 -18 -10 -22 -7 -3 4 -11 2 -18 -3
-6 -5 -20 -11 -31 -13 -10 -2 -32 -10 -49 -16 -16 -7 -34 -14 -40 -15 -5 -2
-18 -6 -27 -9 -26 -10 -52 -18 -58 -19 -3 0 -14 -5 -25 -11 -11 -6 -23 -10
-27 -9 -5 1 -8 -3 -8 -8 0 -5 -3 -9 -7 -8 -5 1 -34 -10 -66 -25 -32 -15 -62
-27 -67 -27 -6 0 -10 -4 -10 -10 0 -5 -3 -9 -7 -8 -11 2 -85 -34 -101 -49 -7
-7 -20 -13 -28 -13 -8 0 -17 -7 -20 -15 -4 -8 -9 -13 -13 -10 -5 2 -59 -29
-122 -70 -62 -41 -116 -75 -120 -75 -4 0 -9 -3 -11 -7 -1 -5 -30 -28 -63 -53
-33 -25 -65 -49 -71 -55 -6 -5 -35 -30 -65 -55 -61 -51 -242 -230 -306 -303
-123 -138 -297 -388 -356 -507 -12 -25 -24 -47 -27 -50 -10 -10 -98 -196 -133
-280 -60 -148 -142 -422 -161 -540 -3 -19 -8 -47 -11 -62 -10 -54 -15 -84 -22
-138 -10 -69 -10 -654 -1 -735 13 -114 21 -155 28 -155 5 0 6 -8 3 -18 -7 -29
81 -374 117 -457 5 -11 21 -51 35 -90 44 -114 131 -296 192 -400 36 -62 112
-182 125 -200 5 -5 35 -47 68 -93 34 -45 65 -82 70 -82 6 0 9 -4 7 -9 -1 -5 6
-17 15 -28 10 -10 39 -43 65 -73 114 -129 290 -293 413 -385 41 -31 89 -67
105 -80 17 -14 34 -25 38 -25 4 0 17 -9 29 -20 12 -11 28 -20 35 -20 7 0 13
-4 13 -8 0 -5 17 -17 38 -28 58 -32 87 -49 92 -55 5 -5 230 -116 290 -142 65
-28 168 -69 182 -71 7 -1 18 -4 23 -7 6 -3 44 -16 85 -28 41 -13 82 -26 90
-29 8 -3 23 -6 33 -7 9 -2 20 -4 25 -5 4 -2 12 -4 17 -5 6 -2 13 -4 18 -5 20
-7 125 -28 162 -34 17 -2 30 -5 30 -6 0 -3 41 -9 78 -12 20 -1 37 -4 37 -7 0
-22 676 -19 800 3 14 3 42 7 62 10 21 3 55 10 76 14 20 5 45 8 55 6 9 -1 17 2
17 8 0 6 9 8 20 5 11 -3 20 -1 20 3 0 5 9 7 20 5 11 -2 20 0 20 4 0 4 6 8 13
8 24 0 122 26 148 39 15 7 29 11 32 8 3 -3 19 2 36 10 16 9 38 18 48 19 10 2
32 9 48 16 17 6 50 19 75 28 25 9 56 24 70 32 13 9 26 15 27 13 5 -4 165 74
226 110 26 15 47 24 47 20 0 -4 4 -2 8 3 4 6 30 24 57 40 28 15 52 31 55 35 3
3 25 18 50 32 25 15 56 36 70 47 14 11 59 45 100 76 41 31 101 79 134 108 73
64 271 262 308 308 47 60 72 91 96 118 35 39 219 317 227 341 3 11 11 20 16
20 5 0 9 9 9 19 0 11 4 22 8 25 8 5 102 190 102 200 0 3 11 29 25 58 106 227
206 636 221 903 11 188 3 612 -11 635 -2 3 -6 33 -10 65 -3 33 -9 68 -11 77
-3 10 -8 30 -10 45 -30 165 -91 365 -174 573 -32 81 -134 283 -193 380 -46 77
-153 238 -167 250 -3 3 -19 23 -35 45 -69 93 -131 161 -266 295 -132 129 -149
145 -240 215 -35 27 -70 55 -77 62 -7 7 -17 13 -21 13 -4 0 -16 8 -27 18 -24
21 -109 77 -109 71 0 -2 -11 6 -25 19 -13 12 -30 22 -37 22 -7 0 -13 4 -13 9
0 5 -20 17 -45 28 -25 10 -45 21 -45 26 0 4 -6 7 -14 7 -8 0 -16 3 -18 8 -5
11 -224 115 -242 115 -9 0 -16 3 -16 6 0 6 -29 19 -90 41 -19 6 -44 16 -55 20
-11 5 -56 20 -100 35 -72 24 -105 33 -142 37 -7 1 -13 4 -13 8 0 4 -6 7 -12 8
-32 3 -76 11 -110 20 -21 5 -38 8 -38 5 0 -3 -6 -1 -12 4 -7 5 -26 10 -43 12
-33 2 -70 8 -70 11 0 1 -16 3 -35 5 -19 2 -37 4 -40 5 -3 1 -21 2 -40 2 -19 0
-39 4 -45 8 -15 11 -584 10 -591 -1 -3 -6 -11 -5 -20 2 -8 6 -14 8 -14 3z"/>
</g>
</svg>
