<?xml version="1.0" standalone="no"?>
<!DOCTYPE svg PUBLIC "-//W3C//DTD SVG 20010904//EN"
 "http://www.w3.org/TR/2001/REC-SVG-20010904/DTD/svg10.dtd">
<svg version="1.0" xmlns="http://www.w3.org/2000/svg"
 width="471.000000pt" height="471.000000pt" viewBox="0 0 471.000000 471.000000"
 preserveAspectRatio="xMidYMid meet">
<metadata>
Created by potrace 1.11, written by Peter Selinger 2001-2013
</metadata>
<g transform="translate(0.000000,471.000000) scale(0.100000,-0.100000)"
fill="#000000" stroke="none">
<path d="M32 2363 l3 -2328 2315 -1 c1273 0 2320 1 2325 3 7 2 10 784 10 2326
l0 2322 -2328 3 -2327 2 2 -2327z m4138 1858 l55 -1 0 -55 c0 -30 -4 -55 -8
-55 -5 0 -5 -5 -1 -11 9 -16 11 -549 1 -549 -5 0 -5 -5 -1 -12 10 -16 11 -228
1 -228 -5 0 -5 -5 -1 -11 9 -16 11 -549 1 -549 -5 0 -5 -5 -1 -12 10 -16 11
-228 1 -228 -5 0 -5 -5 -1 -12 10 -16 11 -68 1 -68 -5 0 -5 -5 -1 -12 10 -16
11 -228 1 -228 -5 0 -5 -5 -1 -12 10 -16 11 -228 1 -228 -5 0 -5 -5 -1 -12 10
-16 11 -228 1 -228 -5 0 -5 -5 -1 -11 10 -16 11 -389 1 -389 -5 0 -5 -5 -1
-12 10 -16 11 -228 1 -228 -5 0 -5 -5 -1 -12 10 -16 11 -228 1 -228 -5 0 -5
-5 -1 -12 10 -16 11 -228 1 -228 -5 0 -5 -5 -1 -12 11 -18 10 -70 -1 -74 -21
-8 -745 -9 -745 -1 0 5 -5 5 -11 1 -11 -6 -100 -9 -124 -4 -5 1 -12 2 -15 1
-17 -7 -90 -5 -90 2 0 5 -5 5 -11 1 -11 -6 -100 -9 -124 -4 -5 1 -12 2 -15 1
-17 -7 -90 -5 -90 2 0 5 -4 5 -10 2 -15 -9 -790 -11 -790 -2 0 5 -5 5 -11 1
-11 -6 -100 -9 -124 -4 -5 1 -12 2 -15 1 -17 -7 -90 -5 -90 2 0 5 -5 5 -11 1
-11 -6 -100 -9 -124 -4 -5 1 -12 2 -15 1 -17 -7 -90 -5 -90 2 0 5 -4 5 -10 2
-15 -9 -790 -11 -790 -2 0 5 -5 5 -11 1 -11 -6 -100 -9 -124 -4 -5 1 -12 2
-15 1 -17 -7 -90 -5 -90 2 0 5 -5 5 -11 1 -14 -8 -107 -9 -116 0 -3 3 -12 1
-19 -5 -10 -9 -15 -7 -20 4 -10 28 -10 727 1 727 7 0 7 3 0 8 -5 4 -10 21 -10
37 0 17 5 33 10 37 7 5 7 8 0 8 -6 0 -10 72 -10 195 0 123 4 195 10 195 7 0 7
3 0 8 -5 4 -10 21 -10 37 0 17 5 33 10 37 7 5 7 8 0 8 -7 0 -10 232 -10 675 0
443 3 675 10 675 7 0 7 3 0 8 -5 4 -10 21 -10 37 0 17 5 33 10 37 7 5 7 8 0 8
-6 0 -10 72 -10 195 0 123 4 195 10 195 7 0 7 3 0 8 -5 4 -10 21 -10 37 0 17
5 33 10 37 7 5 7 8 0 8 -6 0 -10 85 -10 234 0 129 4 232 8 229 4 -2 5 6 2 19
l-6 23 1808 -2 c994 -1 1833 -2 1863 -2z"/>
<path d="M570 2360 l0 -1790 1790 0 1790 0 1 948 c1 521 1 990 1 1042 0 52 -1
431 -1 843 l-1 747 -1790 0 -1790 0 0 -1790z"/>
</g>
</svg>
